<svg width="389" height="439" viewBox="0 0 389 439" fill="none" xmlns="http://www.w3.org/2000/svg">
<path fill-rule="evenodd" clip-rule="evenodd" d="M213.652 0.330829C263.343 2.6915 315.614 21.1554 345.954 59.5969C374.007 95.1404 355.158 145.61 363.171 189.773C369.613 225.279 393.657 256.773 388.201 292.435C382.157 331.944 362.887 369.647 331.692 395.543C299.02 422.666 255.746 445.455 213.652 437.334C172.853 429.463 160.143 377.842 125.286 355.723C87.1463 331.521 20.653 344.785 3.2196 303.803C-13.8586 263.655 42.0324 228.389 53.2225 186.317C65.618 139.713 39.8555 83.4117 71.6389 46.5651C104.567 8.39136 162.554 -2.09669 213.652 0.330829Z" fill="#E7BD89"/>
</svg>
